# xmcd CD database file
# Copyright (C) 1993-1996 Ti Kan
#
# Track frame offsets:
# 187
# 12152
# 23995
# 35715
# 46660
# 58040
# 70177
# 83320
# 96877
# 109552
# 124285
# 137240
# 149235
# 162060
# 173555
# 187407
# 199232
# 212212
# 224267
# 236035
#
# Disc length: 3336 seconds
#
# Revision: 0
# Processed by: cddbd v1.4b41PL1 Copyright (c) Steve Scherf et al.
# Submitted via: inCDius 1.1b5
#
DISCID=280d0614
DTITLE=Conway Twitty and Loretta Lynn - 20 Greatest Hits
DYEAR=1900
DGENRE=
TTITLE0=After The Fire Is Gone
TTITLE1=It's Only Make Believe
TTITLE2=Pickin' Wild Mountain Berries
TTITLE3=Lead Me On
TTITLE4=Louisiana Woman, Mississippi Man
TTITLE5=As Soon As I Hang Up The Phone
TTITLE6=Spiders And Snakes
TTITLE7=Feelin's
TTITLE8=The Letter
TTITLE9=God Bless America Again
TTITLE10=I Can't Love You Enough
TTITLE11=From Seven To Ten
TTITLE12=I've Already Loved You In My Mind
TTITLE13=You're The Reason Our Kids Are Ugly
TTITLE14=The Sadness Of It All
TTITLE15=That's All That Matters To Me
TTITLE16=It's True Love
TTITLE17=You Know Just What I'd Do
TTITLE18=Lovin' What Your Lovin' Does To Me
TTITLE19=I Still Believe In Waltzes
EXTD=
EXTT0=
EXTT1=
EXTT2=
EXTT3=
EXTT4=
EXTT5=
EXTT6=
EXTT7=
EXTT8=
EXTT9=
EXTT10=
EXTT11=
EXTT12=
EXTT13=
EXTT14=
EXTT15=
EXTT16=
EXTT17=
EXTT18=
EXTT19=
PLAYORDER=
